<?xml version="1.0" encoding="utf-8"?><svg version="1.1" id="Layer_1" xmlns="http://www.w3.org/2000/svg" xmlns:xlink="http://www.w3.org/1999/xlink" x="0px" y="0px" viewBox="0 0 71.09 122.88" style="enable-background:new 0 0 71.09 122.88" xml:space="preserve"><style type="text/css">.st0{fill-rule:evenodd;clip-rule:evenodd;}</style><g><path class="st0" d="M13.82,36.89l21.67-15.37l21.78,15.37H13.82L13.82,36.89L13.82,36.89z M12.51,0h46.07 c3.44,0,6.59,1.41,8.85,3.66c2.26,2.26,3.67,5.4,3.67,8.85v97.86c0,3.44-1.41,6.59-3.67,8.85c-2.26,2.26-5.4,3.66-8.85,3.66H12.51 c-3.44,0-6.59-1.41-8.85-3.66c-2.26-2.26-3.67-5.4-3.67-8.85V12.51c0-3.44,1.41-6.59,3.67-8.85C5.92,1.41,9.07,0,12.51,0L12.51,0 L12.51,0z M32.42,86.56c-0.05-0.03-0.12-0.06-0.17-0.1c-0.68-0.54-1.44-1.14-2.08-1.68c-0.94-0.77-2.03-1.67-2.79-2.3 c-0.51-0.42-1.1-0.72-1.67-0.84c-0.36-0.06-0.68-0.06-0.94,0.04c-0.21,0.09-0.39,0.26-0.5,0.51c-0.15,0.35-0.23,0.84-0.19,1.51 c0.04,0.59,0.24,1.24,0.51,1.87c0.4,0.91,0.95,1.77,1.37,2.31c0.03,0.04,0.05,0.06,0.06,0.1l7.83,11.19h20.58 c1.27-2.09,2.36-3.94,2.49-6.55l-0.08-3.66c-0.01-0.05-0.01-0.1-0.01-0.15s0-0.4,0.01-0.86c0.03-2.43,0.06-5.42-2.16-5.79h-1.44 c-0.01,0.68-0.05,1.39-0.09,2.05c-0.04,0.6-0.08,1.17-0.08,1.73c0,0.59-0.48,1.07-1.07,1.07c-0.59,0-1.07-0.48-1.07-1.07 c0-0.55,0.04-1.21,0.08-1.87c0.14-2.29,0.31-4.9-1.51-5.23h-1.42c-0.08,0-0.15-0.01-0.23-0.03c0.01,0.82-0.04,1.68-0.09,2.5 c-0.04,0.6-0.08,1.18-0.08,1.73c0,0.59-0.48,1.07-1.07,1.07c-0.59,0-1.07-0.48-1.07-1.07c0-0.55,0.04-1.21,0.08-1.87 c0.14-2.29,0.31-4.9-1.51-5.23h-1.42c-0.1,0-0.19-0.01-0.28-0.04v4.17c0,0.59-0.48,1.07-1.07,1.07c-0.59,0-1.07-0.48-1.07-1.07 V69.4c0-1.87-0.76-3.06-1.75-3.54c-0.36-0.18-0.75-0.27-1.13-0.27c-0.37,0-0.76,0.09-1.12,0.27c-0.96,0.49-1.72,1.68-1.72,3.6 v19.09c0,0.59-0.48,1.07-1.07,1.07c-0.59,0-1.07-0.48-1.07-1.07v-1.99h0.02V86.56L32.42,86.56z M31.29,99.18l-6.98-9.98l-0.04-0.04 c-0.48-0.63-1.13-1.63-1.62-2.72c-0.36-0.82-0.63-1.72-0.69-2.59c-0.06-1.04,0.08-1.87,0.37-2.53c0.36-0.81,0.95-1.35,1.67-1.63 c0.66-0.27,1.41-0.31,2.16-0.15c0.9,0.18,1.84,0.63,2.62,1.29c0.64,0.54,1.73,1.42,2.79,2.29l0.87,0.72V69.46 c0-2.85,1.27-4.69,2.9-5.51c0.66-0.33,1.37-0.5,2.09-0.5c0.72,0,1.44,0.17,2.09,0.5c1.64,0.82,2.93,2.67,2.93,5.47v4.42l-0.03-0.01 c0.09-0.03,0.18-0.04,0.28-0.04h1.49c0.08,0,0.17,0.01,0.24,0.03c1.98,0.31,2.86,1.46,3.22,2.95c0.14-0.06,0.3-0.1,0.45-0.1h1.49 c0.08,0,0.17,0.01,0.24,0.03c2.13,0.33,2.98,1.64,3.29,3.29c0.05-0.01,0.1-0.01,0.17-0.01h1.49c0.08,0,0.17,0.01,0.24,0.03 c4.08,0.63,4.03,4.69,3.99,7.95v0.85l0.09,3.77v0.12c-0.13,2.67-1.02,4.56-2.16,6.49h11.13V19.29H3v79.9l0,0L31.29,99.18 L31.29,99.18L31.29,99.18z M28.55,112.96c-0.81,0-1.52-0.66-1.52-1.52c0-0.81,0.66-1.52,1.52-1.52h13.77 c0.81,0,1.52,0.66,1.52,1.52c0,0.81-0.66,1.52-1.52,1.52H28.55L28.55,112.96L28.55,112.96z M27.26,7.18c1.34,0,2.41,1.07,2.41,2.41 c0,1.34-1.07,2.41-2.41,2.41c-1.34,0-2.41-1.07-2.41-2.41C24.85,8.25,25.92,7.18,27.26,7.18L27.26,7.18L27.26,7.18z M35.29,7.18 c1.34,0,2.41,1.07,2.41,2.41c0,1.34-1.07,2.41-2.41,2.41c-1.34,0-2.41-1.07-2.41-2.41C32.88,8.25,33.96,7.18,35.29,7.18L35.29,7.18 L35.29,7.18z M43.32,7.18c1.34,0,2.41,1.07,2.41,2.41c0,1.34-1.07,2.41-2.41,2.41c-1.34,0-2.41-1.07-2.41-2.41 C40.92,8.25,41.99,7.18,43.32,7.18L43.32,7.18L43.32,7.18z M68.1,102.19H3v8.14c0,2.63,1.07,5,2.81,6.7 c1.74,1.74,4.11,2.81,6.7,2.81h46.07c2.63,0,5-1.07,6.7-2.81c1.74-1.74,2.81-4.11,2.81-6.7L68.1,102.19L68.1,102.19L68.1,102.19 L68.1,102.19z M3,16.26H68.1v-3.73c0-2.63-1.07-5-2.81-6.7c-1.74-1.74-4.11-2.81-6.7-2.81H12.51c-2.63,0-5,1.07-6.7,2.81 C4.08,7.56,3,9.93,3,12.52V16.26L3,16.26L3,16.26L3,16.26z M14.36,59.31h1.78v-2.34h0.49v-1.12h1.42V42.47h-2.91v-3.21h40.68v3.21 h-2.9v13.39h1.42v1.12h0.49v2.34h1.78v2.45H14.36V59.31L14.36,59.31L14.36,59.31z M24.83,56.97h1.64v-1.12h1.42V42.47h-4.48v13.39 h1.42V56.97L24.83,56.97L24.83,56.97L24.83,56.97z M34.67,56.97h1.64v-1.12h1.42V42.47h-4.48v13.39h1.42V56.97L34.67,56.97 L34.67,56.97L34.67,56.97z M44.51,56.97h1.64v-1.12h1.42V42.47h-4.49v13.39h1.42V56.97L44.51,56.97L44.51,56.97L44.51,56.97z M28.19,33.01l7.33-5.62l7.37,5.62H28.19L28.19,33.01L28.19,33.01z"/></g></svg>