<svg id="Layer_1" data-name="Layer 1" xmlns="http://www.w3.org/2000/svg" viewBox="0 0 122.88 73.16"><defs><style>.cls-1{fill-rule:evenodd;}</style></defs><title>insert-card</title><path class="cls-1" d="M56.61,43.47a8,8,0,0,1-3.25,6.46,8.06,8.06,0,1,1-9.61,0,8.05,8.05,0,1,1,12.86-6.46ZM21.05,24a3.53,3.53,0,0,1,0,7.05H13.39C6.88,31.05,2.74,26.88,1,21.54a19.13,19.13,0,0,1,0-12C2.74,4.17,6.88,0,13.39,0h96.1c6.51,0,10.65,4.17,12.42,9.51a19.13,19.13,0,0,1,0,12c-1.77,5.34-5.91,9.51-12.42,9.51H99.86a3.53,3.53,0,1,1,0-7h9.63c3,0,4.88-2.05,5.76-4.67a12.77,12.77,0,0,0,0-7.61c-.88-2.62-2.8-4.67-5.76-4.67h-16V67.63a5.53,5.53,0,0,1-5.53,5.53h-53a5.55,5.55,0,0,1-5.53-5.53V7.05h-16c-3,0-4.88,2.05-5.76,4.67a12.77,12.77,0,0,0,0,7.61C8.51,22,10.43,24,13.39,24ZM90.26,7.05H81.55V70h6.39a2.34,2.34,0,0,0,2.32-2.33V7.05Zm-24.63,0H54.8v19c0,2.06-4.08,2.06-4.08,0v-19H46.39V17.29c0,2.05-4.09,2.05-4.09,0V7.05H32.62V67.63A2.34,2.34,0,0,0,34.94,70H65.63V7.05Z"/></svg>